<?xml version="1.0" standalone="no"?>
<!DOCTYPE svg PUBLIC "-//W3C//DTD SVG 20010904//EN"
 "http://www.w3.org/TR/2001/REC-SVG-20010904/DTD/svg10.dtd">
<svg version="1.0" xmlns="http://www.w3.org/2000/svg"
 width="552.000000pt" height="368.000000pt" viewBox="0 0 552.000000 368.000000"
 preserveAspectRatio="xMidYMid meet">

<g transform="translate(0.000000,368.000000) scale(0.100000,-0.100000)"
fill="#000000" stroke="none">
<path d="M5175 3134 l-120 -145 -3 120 c-2 106 -4 119 -20 115 -9 -2 -69 -15
-133 -29 -64 -14 -120 -25 -125 -25 -5 0 0 -7 11 -16 19 -14 20 -29 24 -232
l3 -218 -46 -57 c-26 -31 -52 -57 -59 -57 -7 1 -31 18 -55 40 l-43 38 3 231
c2 150 -1 231 -7 231 -5 -1 -53 -60 -105 -131 l-95 -131 -3 111 c-3 109 -3
111 -25 106 -71 -15 -191 -46 -194 -49 -2 -2 3 -9 12 -16 12 -10 15 -45 15
-205 l0 -192 -41 -52 -42 -52 -38 37 -39 38 0 209 c0 117 -4 206 -9 203 -5 -3
-31 -38 -58 -78 -27 -40 -62 -91 -76 -112 l-27 -39 0 97 c0 53 -4 96 -9 96
-14 0 -153 -29 -171 -36 -13 -4 -12 -7 3 -15 15 -9 17 -29 17 -183 l0 -173
-35 -46 c-19 -25 -35 -49 -35 -54 0 -4 32 -42 71 -83 136 -146 160 -176 153
-196 -4 -11 -3 -16 1 -11 5 4 8 51 6 105 l-2 97 93 -95 c52 -52 126 -130 166
-174 l72 -78 0 -87 -1 -86 -80 83 c-74 76 -81 87 -77 117 2 18 0 31 -4 29 -4
-3 -8 -12 -8 -20 0 -8 -5 -14 -11 -14 -8 0 -7 -5 1 -15 14 -17 7 -27 -68 -103
-19 -18 -32 -35 -30 -38 3 -2 39 -9 82 -14 75 -11 192 -39 229 -55 10 -4 17
-3 17 4 0 6 -6 11 -14 11 -8 0 -18 5 -22 12 -5 7 -3 8 7 3 11 -7 12 -6 2 6 -9
11 -12 90 -13 286 l0 271 87 -90 c49 -50 87 -94 86 -98 -2 -5 -32 -40 -69 -79
-37 -39 -73 -80 -82 -93 -8 -13 26 20 77 72 l91 95 89 -93 c49 -51 92 -89 95
-84 5 9 28 136 29 162 3 93 -5 352 -10 346 -5 -4 -7 -78 -5 -164 l4 -157 -106
105 -106 105 0 192 c0 106 3 193 6 193 9 0 194 -161 194 -168 0 -4 -41 -52
-89 -107 -49 -55 -87 -102 -85 -105 3 -2 8 1 12 7 4 6 32 39 62 73 112 127
104 122 100 71 -1 -13 3 -21 8 -17 5 3 8 20 6 37 l-4 32 23 -19 c12 -10 24
-21 27 -24 3 -3 38 -34 78 -69 40 -36 71 -70 68 -77 -3 -8 1 -11 10 -7 10 4
36 -14 72 -49 69 -68 91 -80 131 -72 30 6 30 7 33 75 l3 68 119 -99 c66 -55
123 -100 128 -100 4 0 9 -53 10 -117 l2 -118 5 103 6 103 94 -81 c52 -44 96
-80 98 -80 1 0 3 115 3 255 l0 255 -100 76 c-80 62 -101 83 -105 108 -3 17 -5
136 -3 264 2 150 -1 232 -7 232 -5 -1 -64 -66 -130 -146z m6 -281 c65 -48 119
-90 119 -94 0 -5 -56 -66 -125 -136 l-124 -128 -1 223 c0 122 3 222 6 222 3 0
59 -39 125 -87z m-1151 -272 c-4 -9 -30 -41 -57 -71 -26 -31 -58 -69 -70 -85
l-22 -30 -1 180 0 180 79 -79 c61 -60 78 -83 71 -95z"/>
<path d="M3559 2878 c-7 -13 -35 -59 -63 -102 l-51 -80 -3 92 c-1 51 -6 92
-10 92 -21 -1 -134 -29 -139 -34 -4 -3 -1 -6 5 -6 9 0 12 -47 12 -168 0 -163
-1 -168 -25 -205 l-26 -37 -25 30 c-14 16 -29 30 -32 30 -4 0 -29 -34 -56 -75
-27 -42 -51 -74 -53 -71 -7 6 -9 276 -2 276 3 0 28 -28 55 -62 l49 -63 3 82
c1 45 1 121 0 169 l-3 86 -42 -74 c-69 -120 -69 -120 -65 -28 l4 80 -33 -6
c-19 -3 -47 -10 -64 -15 l-30 -9 3 -156 c3 -155 3 -157 -23 -194 l-26 -38 28
-39 c66 -90 127 -163 135 -163 5 0 7 25 5 55 -2 30 -1 55 3 55 13 0 225 -268
218 -276 -2 -1 -24 -6 -50 -9 l-46 -6 -62 81 c-35 44 -66 77 -70 73 -3 -4 -30
-38 -59 -76 l-53 -67 -43 64 c-24 36 -68 96 -99 134 l-57 70 3 142 3 143 50
-64 50 -64 3 83 c2 46 2 117 0 160 l-3 76 -52 -89 -52 -90 -1 78 0 78 -47 -7
c-27 -3 -50 -8 -52 -10 -1 -1 -2 -68 -2 -148 2 -138 1 -147 -22 -181 -24 -35
-24 -35 -42 -15 -10 11 -21 20 -25 20 -6 0 -43 -49 -74 -98 -7 -12 4 -13 64
-7 l73 7 -6 -33 c-3 -19 -24 -114 -47 -212 -22 -98 -40 -180 -40 -182 0 -5 61
13 85 25 11 5 45 16 75 24 30 8 46 15 34 15 -13 1 -28 14 -39 35 l-19 35 28
53 c26 48 26 51 5 25 l-24 -28 -2 58 c-3 95 -4 108 -15 114 -5 3 -8 16 -6 29
2 19 11 11 58 -50 126 -165 146 -199 142 -241 l-4 -39 40 0 c23 0 44 -4 47
-10 11 -18 21 -10 23 19 4 57 17 76 51 77 18 0 31 -5 31 -12 0 -7 5 -14 11
-16 7 -2 4 -16 -10 -38 -13 -23 -21 -29 -21 -17 0 31 -17 18 -46 -35 -21 -40
-27 -68 -28 -115 -1 -33 -4 -57 -7 -51 -4 5 -16 -11 -29 -37 -12 -26 -35 -60
-49 -76 l-27 -29 -119 20 c-66 10 -121 17 -123 15 -5 -4 80 -22 151 -30 31 -4
57 -11 57 -16 0 -5 -6 -9 -13 -9 -8 0 -22 -9 -32 -20 -14 -15 -15 -20 -4 -20
38 0 331 -31 384 -41 33 -5 97 -13 143 -16 68 -4 82 -3 82 10 0 8 10 18 23 22
27 9 6 8 172 2 97 -3 120 -2 75 3 -169 22 -234 38 -159 41 19 1 88 5 154 9
l120 6 -111 2 c-122 2 -177 10 -168 23 3 5 0 9 -6 9 -6 0 -18 7 -27 15 -8 8
-18 13 -23 10 -4 -3 -10 7 -13 21 -6 34 36 140 70 176 l27 28 -25 0 c-28 0
-66 19 -39 20 12 0 12 2 1 9 -8 5 -9 11 -3 15 6 3 13 2 16 -3 3 -5 23 -7 43
-4 21 3 83 6 138 8 183 6 210 7 194 12 -16 4 -140 144 -317 356 l-82 98 0 155
c0 85 4 154 9 154 12 0 114 -117 128 -148 10 -22 12 9 13 176 0 199 -5 229
-31 180z m-176 -610 l56 -73 3 -95 3 -95 -58 3 c-42 3 -60 8 -67 22 -10 20
-10 321 1 314 4 -2 32 -36 62 -76z m-186 -264 c-3 -3 -12 -4 -19 -1 -8 3 -5 6
6 6 11 1 17 -2 13 -5z m316 -2 c3 -4 -6 -21 -19 -37 l-25 -30 12 28 c7 15 17
27 23 28 6 0 2 4 -9 9 -16 7 -17 9 -3 9 9 1 19 -2 21 -7z m65 -32 c-1 -35 -18
-41 -18 -7 0 21 7 37 16 37 1 0 2 -13 2 -30z m72 -44 c0 -13 -46 39 -54 60 -4
11 7 3 23 -16 17 -19 30 -39 31 -44z m-370 14 c0 -5 -5 -10 -11 -10 -5 0 -7 5
-4 10 3 6 8 10 11 10 2 0 4 -4 4 -10z m346 -28 c-9 -8 -26 10 -26 26 1 15 2
15 15 -2 8 -11 13 -21 11 -24z m-571 -49 c-29 -43 -33 -62 -8 -42 15 13 15 12
3 -7 -10 -17 -16 -19 -26 -10 -10 9 -10 15 0 31 7 11 19 30 27 43 8 12 17 22
22 22 4 0 -4 -17 -18 -37z m267 -43 c21 0 38 4 38 8 0 4 9 8 20 8 15 0 19 -5
14 -21 -6 -18 -4 -17 15 4 12 13 24 21 28 17 4 -4 3 -10 -2 -14 -12 -9 -35
-72 -35 -98 0 -14 -2 -16 -9 -6 -6 10 -10 7 -15 -13 -4 -14 -4 -30 -1 -36 4
-5 1 -24 -6 -43 -9 -24 -18 -33 -30 -31 -12 3 -16 -1 -12 -11 3 -7 10 -11 15
-8 6 4 9 1 6 -6 -5 -17 -40 -22 -50 -7 -4 6 -10 8 -15 4 -4 -5 -1 -12 7 -17
26 -16 6 -19 -43 -6 -47 12 -47 12 -20 23 l28 11 -27 1 c-29 1 -40 21 -13 21
23 0 21 79 -2 82 -10 0 -22 2 -28 3 -5 2 -18 3 -27 4 -10 0 -18 6 -18 11 0 7
6 7 19 1 10 -6 22 -7 26 -3 3 4 12 7 18 7 18 0 45 58 40 88 -5 23 -3 26 12 20
15 -5 17 -3 11 13 -6 15 -5 17 5 7 7 -7 30 -13 51 -13z m-142 -10 c0 -5 -5
-10 -11 -10 -5 0 -7 5 -4 10 3 6 8 10 11 10 2 0 4 -4 4 -10z m50 -40 c0 -5 -5
-10 -11 -10 -5 0 -7 5 -4 10 3 6 8 10 11 10 2 0 4 -4 4 -10z m-220 -120 c0 -5
-4 -10 -10 -10 -5 0 -10 5 -10 10 0 6 5 10 10 10 6 0 10 -4 10 -10z m312 -122
c-7 -7 -12 -8 -12 -2 0 14 12 26 19 19 2 -3 -1 -11 -7 -17z"/>
<path d="M3345 2070 c-10 -11 -16 -22 -14 -24 2 -2 12 7 22 20 22 29 17 32 -8
4z"/>
<path d="M3250 1789 c0 -5 5 -7 10 -4 6 3 10 8 10 11 0 2 -4 4 -10 4 -5 0 -10
-5 -10 -11z"/>
<path d="M3265 1770 c-3 -5 -1 -10 4 -10 6 0 11 5 11 10 0 6 -2 10 -4 10 -3 0
-8 -4 -11 -10z"/>
<path d="M3366 1765 c-3 -9 -6 -26 -5 -38 1 -16 4 -12 10 12 10 34 6 55 -5 26z"/>
<path d="M3288 1583 c7 -3 16 -2 19 1 4 3 -2 6 -13 5 -11 0 -14 -3 -6 -6z"/>
<path d="M2435 2680 l-40 -5 -2 -135 c-2 -102 -7 -143 -20 -167 -18 -37 -28
-41 -42 -16 -11 21 -13 20 -56 -48 l-34 -54 -1 113 c0 61 2 112 4 112 2 0 16
-18 31 -40 15 -22 31 -40 35 -40 4 0 8 56 9 125 1 69 0 125 -3 125 -2 0 -19
-26 -37 -57 -18 -32 -36 -59 -41 -61 -4 -2 -8 -67 -8 -145 l1 -142 44 -59 45
-59 14 35 c8 19 20 55 27 81 11 44 13 46 40 40 15 -3 40 -3 53 1 25 6 25 7 28
129 l3 122 45 -58 c43 -55 45 -57 47 -30 6 77 7 243 1 243 -3 0 -23 -29 -44
-65 -21 -36 -41 -65 -45 -65 -4 0 -6 27 -6 61 1 33 0 62 -3 63 -3 1 -23 -1
-45 -4z"/>
<path d="M2226 2593 c9 -65 14 -67 14 -5 0 30 -4 52 -11 52 -7 0 -8 -16 -3
-47z"/>
<path d="M3606 2507 c3 -10 9 -15 12 -12 3 3 0 11 -7 18 -10 9 -11 8 -5 -6z"/>
<path d="M4804 2429 c-3 -6 -1 -16 5 -22 8 -8 11 -5 11 11 0 24 -5 28 -16 11z"/>
<path d="M56 2413 c-3 -3 -6 -18 -7 -32 0 -24 -1 -24 -9 -6 -7 15 -9 16 -9 4
-1 -9 -8 -22 -16 -29 -13 -11 -15 -54 -15 -281 l0 -269 41 -6 c22 -4 36 -10
31 -13 -12 -7 205 -4 417 6 119 6 157 5 167 -4 7 -7 17 -13 22 -13 6 0 24 -34
42 -76 56 -136 100 -227 106 -221 3 3 -24 76 -61 162 -37 86 -64 159 -61 162
3 4 6 2 6 -4 0 -7 12 -8 38 -2 20 5 62 9 92 10 l55 2 -50 7 c-40 6 -30 7 55 9
58 1 110 5 116 9 17 11 29 512 12 512 -7 1 -29 3 -48 5 -19 2 -98 9 -175 15
-77 6 -219 17 -315 25 -96 8 -222 17 -280 20 -58 3 -114 8 -126 10 -12 3 -24
2 -28 -2z"/>
<path d="M4800 2345 c0 -14 5 -25 10 -25 6 0 10 11 10 25 0 14 -4 25 -10 25
-5 0 -10 -11 -10 -25z"/>
<path d="M1522 2261 c-1 -98 -1 -98 29 -120 17 -13 33 -20 37 -16 4 3 0 10 -8
15 -8 6 -12 10 -7 10 4 0 0 11 -9 25 -9 14 -12 25 -6 25 6 0 14 -5 17 -10 4
-6 14 -9 23 -8 14 3 18 -10 23 -77 l5 -80 2 97 c1 66 6 98 14 100 15 5 54 -29
45 -39 -4 -3 -7 -1 -7 5 0 6 -7 9 -15 6 -12 -5 -15 -34 -15 -170 0 -103 -4
-164 -10 -164 -5 0 -10 8 -10 17 0 14 -4 12 -25 -7 -42 -39 -26 -108 22 -98
26 5 32 37 39 220 6 157 7 166 27 172 13 3 25 -1 33 -12 12 -16 13 -16 14 0 0
9 -8 19 -18 22 -10 4 -19 14 -19 22 0 15 1 15 12 0 7 -9 18 -16 25 -16 9 0 9
4 2 13 -5 6 -9 31 -7 54 2 24 -1 45 -6 49 -5 3 -5 13 1 24 8 15 6 21 -10 30
-11 6 -26 7 -33 3 -18 -11 -116 -13 -122 -2 -4 5 -14 9 -24 9 -16 0 -18 -10
-19 -99z"/>
<path d="M4856 2229 c-80 -5 -142 -13 -146 -20 -4 -5 -19 -74 -35 -152 -41
-213 -40 -197 -11 -198 78 -2 94 -2 109 4 10 4 17 2 17 -3 0 -6 40 -10 95 -10
90 0 95 1 99 23 17 81 26 131 26 149 0 19 -3 18 -30 -10 -16 -18 -30 -40 -30
-49 0 -11 -3 -14 -8 -8 -4 6 -18 10 -32 8 -14 -1 -42 -3 -63 -4 -20 -1 -42 -8
-48 -15 -6 -7 -17 -10 -25 -7 -8 3 -14 0 -14 -7 0 -6 -5 -8 -11 -4 -8 4 -7 9
2 15 7 4 10 11 6 15 -4 4 -21 -3 -38 -15 -16 -12 -35 -21 -41 -19 -18 6 60 58
84 56 14 -2 22 2 21 9 -2 7 12 24 31 39 33 27 65 34 157 36 l47 1 16 81 c20
102 21 96 -11 95 -16 -1 -91 -6 -167 -10z m126 -116 c-5 -24 -6 -25 -12 -8 -6
16 2 33 16 35 1 0 -1 -12 -4 -27z m32 12 c3 -8 1 -15 -4 -15 -6 0 -10 7 -10
15 0 8 2 15 4 15 2 0 6 -7 10 -15z m-77 -37 c-3 -8 -6 -5 -6 6 -1 11 2 17 5
13 3 -3 4 -12 1 -19z m-227 -192 c0 -3 -4 -8 -10 -11 -5 -3 -10 -1 -10 4 0 6
5 11 10 11 6 0 10 -2 10 -4z"/>
<path d="M2466 2211 l-58 -6 -28 -95 c-15 -52 -30 -112 -34 -133 l-7 -37 84 0
c85 0 85 0 90 28 3 15 17 72 31 127 14 55 26 106 26 113 0 12 -5 13 -104 3z"/>
<path d="M5152 2190 c0 -14 2 -19 5 -12 2 6 2 18 0 25 -3 6 -5 1 -5 -13z"/>
<path d="M4400 2023 l0 -178 -86 85 c-49 48 -75 68 -59 47 16 -21 35 -44 44
-50 9 -7 24 -22 35 -34 16 -20 17 -25 5 -40 -13 -16 -12 -17 3 -4 16 12 20 10
38 -10 10 -13 19 -32 20 -41 0 -10 5 -18 10 -18 8 0 10 69 9 210 0 116 -5 210
-10 210 -5 0 -9 -80 -9 -177z"/>
<path d="M3950 2125 c30 -33 56 -62 58 -64 1 -2 4 -2 7 0 2 3 -24 32 -58 65
l-62 59 55 -60z"/>
<path d="M4053 2135 c0 -22 2 -30 4 -17 2 12 2 30 0 40 -3 9 -5 -1 -4 -23z"/>
<path d="M5143 2141 c-1 -9 -4 -32 -8 -51 -3 -19 -15 -84 -26 -145 -11 -60
-23 -125 -26 -142 l-6 -33 74 -2 c41 -1 94 -3 119 -4 25 -2 65 -3 90 -3 l45
-1 -2 -177 c-2 -98 -7 -214 -13 -258 -5 -44 -14 -165 -19 -270 -7 -124 -16
-205 -26 -234 -9 -24 -14 -50 -11 -58 7 -16 -2 -36 -47 -106 -25 -39 -36 -47
-56 -45 -24 3 -26 7 -26 55 l1 52 -46 10 c-25 6 -92 20 -150 32 -136 27 -415
85 -505 104 -38 8 -103 22 -143 31 l-73 16 1 36 c1 21 2 205 1 409 l-1 373
-35 -5 c-35 -4 -95 -33 -95 -46 0 -4 -13 -12 -30 -19 -16 -7 -30 -17 -30 -22
0 -23 -42 -50 -101 -63 l-64 -13 73 -1 c57 -1 72 -4 72 -16 0 -8 8 -15 17 -15
14 0 14 -3 -5 -20 -12 -11 -29 -20 -39 -20 -10 0 -25 -5 -33 -10 -11 -7 2 -10
43 -10 50 0 80 -10 117 -38 10 -7 -2 -355 -13 -374 -7 -10 -31 -26 -54 -34
-24 -9 -48 -23 -54 -30 -6 -8 -22 -14 -35 -14 -13 0 -24 -3 -24 -7 0 -10 -68
-52 -147 -93 -35 -17 -63 -34 -63 -37 0 -8 49 6 88 24 18 9 36 13 39 9 4 -4
-2 -9 -14 -12 -14 -4 -19 -12 -16 -23 5 -20 -21 -36 -39 -24 -6 3 -8 1 -5 -5
7 -10 -62 -48 -418 -232 -88 -45 -209 -108 -270 -140 -60 -32 -258 -133 -439
-225 -182 -93 -348 -179 -370 -192 l-41 -23 1608 0 1607 0 0 913 0 914 -43 39
c-23 21 -67 61 -97 89 -30 27 -58 59 -61 70 -6 19 -7 18 -17 -5 -13 -32 -144
-150 -167 -150 -5 0 -3 5 5 10 8 5 10 10 5 10 -6 0 -16 -5 -23 -12 -9 -9 -12
-6 -12 14 0 15 5 28 10 30 6 2 12 28 15 58 4 63 19 110 35 110 6 0 4 7 -4 16
-9 8 -16 17 -16 20 0 13 25 -2 82 -48 l63 -51 -58 59 c-32 33 -56 62 -53 65 2
2 -6 5 -18 5 -13 1 -22 -4 -23 -15z m-813 -1302 c0 -11 -4 -17 -10 -14 -5 3
-10 15 -10 26 0 11 5 17 10 14 6 -3 10 -15 10 -26z"/>
<path d="M3871 1993 c0 -51 3 -93 7 -93 4 0 6 33 4 73 -5 113 -9 121 -11 20z"/>
<path d="M4566 1984 c-3 -26 -4 -49 -2 -52 3 -2 8 17 11 43 4 25 5 48 3 51 -3
2 -8 -17 -12 -42z"/>
<path d="M3024 2002 c-14 -8 -4 -36 14 -39 13 -3 14 3 4 29 -4 10 -12 14 -18
10z"/>
<path d="M4320 1951 c0 -11 48 -47 54 -40 2 2 -10 14 -25 27 -16 13 -29 19
-29 13z"/>
<path d="M2388 1873 c6 -2 18 -2 25 0 6 3 1 5 -13 5 -14 0 -19 -2 -12 -5z"/>
<path d="M1981 1825 c1 -24 3 -25 6 -7 2 12 7 22 11 22 13 0 52 -66 52 -87 0
-12 4 -33 10 -47 8 -21 7 -26 -7 -26 -27 0 -9 -10 28 -14 19 -3 71 -8 117 -12
l82 -7 0 97 c0 68 -4 98 -12 101 -7 2 -75 6 -151 7 l-137 3 1 -30z"/>
<path d="M4520 1850 c0 -5 4 -10 9 -10 5 0 7 -8 4 -19 -5 -21 -53 -26 -65 -7
-5 7 -8 3 -8 -9 0 -16 7 -20 39 -22 34 -2 40 1 45 21 3 14 3 32 0 40 -7 18
-24 22 -24 6z"/>
<path d="M4280 1815 c0 -14 34 -34 58 -35 12 0 22 5 22 11 0 6 -7 8 -16 5 -8
-3 -26 1 -40 10 -13 9 -24 13 -24 9z"/>
<path d="M4430 1794 c0 -8 5 -12 10 -9 6 4 8 11 5 16 -9 14 -15 11 -15 -7z"/>
<path d="M4733 1773 c15 -2 37 -2 50 0 12 2 0 4 -28 4 -27 0 -38 -2 -22 -4z"/>
<path d="M4883 1763 c15 -2 39 -2 55 0 15 2 2 4 -28 4 -30 0 -43 -2 -27 -4z"/>
<path d="M4320 1645 c0 -87 2 -96 25 -121 14 -15 28 -39 32 -53 8 -34 17 -39
83 -46 30 -3 73 -8 95 -11 22 -2 93 -9 158 -14 66 -6 123 -12 128 -15 8 -6
281 -34 326 -35 22 0 22 2 25 169 l3 170 -60 5 c-33 3 -213 12 -400 21 -187 9
-357 17 -377 19 l-38 4 0 -93z"/>
<path d="M2440 1701 c0 -5 -10 -13 -21 -16 -16 -6 -18 -9 -8 -15 9 -6 5 -11
-14 -15 -15 -4 -27 -12 -27 -17 0 -6 10 -8 23 -4 12 3 45 6 72 7 28 1 42 3 33
6 -11 3 -18 14 -18 28 0 12 -7 26 -16 29 -21 8 -24 8 -24 -3z"/>
<path d="M2625 1661 c34 -10 154 -37 203 -45 17 -3 32 -1 32 4 0 5 -15 11 -32
14 -18 2 -63 9 -100 15 -37 7 -82 14 -100 16 l-33 5 30 -9z"/>
<path d="M1645 1557 c-4 -10 -19 -24 -34 -32 -26 -14 -25 -14 22 -15 51 0 53
3 32 40 -12 22 -14 23 -20 7z"/>
<path d="M3878 1483 c6 -2 18 -2 25 0 6 3 1 5 -13 5 -14 0 -19 -2 -12 -5z"/>
<path d="M3938 1473 c7 -3 16 -2 19 1 4 3 -2 6 -13 5 -11 0 -14 -3 -6 -6z"/>
<path d="M40 1350 l-45 -7 40 -1 c22 0 51 4 65 8 32 10 5 10 -60 0z"/>
<path d="M198 1325 c-2 -3 -18 -7 -34 -9 -16 -2 -45 -9 -64 -15 -19 -6 -50
-11 -67 -11 -33 0 -33 0 -33 -48 l0 -49 80 5 c89 5 114 -12 33 -23 -27 -3 -63
-8 -81 -11 l-32 -5 0 -579 0 -580 675 0 c371 0 675 2 675 4 0 2 -73 57 -161
122 -426 314 -529 393 -529 407 0 6 -3 7 -7 4 -3 -4 -16 5 -29 18 -13 14 -28
25 -34 25 -5 0 -10 5 -10 11 0 5 -4 7 -10 4 -5 -3 -10 1 -10 9 0 15 -28 34
-82 56 -18 8 -25 17 -21 27 5 12 1 14 -15 9 -17 -6 -21 -4 -16 8 3 9 2 16 -3
16 -5 0 -23 13 -41 30 -18 16 -43 35 -55 41 -12 6 -2 -8 21 -30 24 -23 40 -41
36 -41 -4 0 -15 7 -24 15 -10 9 -27 18 -40 20 -33 6 -49 24 -44 49 3 18 -4 30
-29 48 -56 43 -72 107 -72 284 0 144 -1 150 -20 149 -15 -2 -15 -1 -2 2 9 2
17 8 17 13 0 5 6 7 14 4 7 -3 16 2 19 10 6 16 5 20 -5 11z"/>
<path d="M4565 1299 c16 -5 57 -11 90 -15 33 -3 86 -10 118 -15 31 -6 63 -7
69 -2 12 7 -227 42 -282 42 -23 -1 -23 -1 5 -10z"/>
<path d="M4410 1296 c0 -3 -1 -72 -1 -153 l0 -148 313 -57 c172 -31 321 -57
331 -58 15 0 17 14 17 165 l0 164 -32 5 c-105 18 -321 47 -438 61 -74 8 -147
18 -162 21 -16 3 -28 3 -28 0z"/>
<path d="M3298 603 c-10 -2 -18 -9 -18 -14 0 -6 10 -5 23 2 37 20 36 23 -5 12z"/>
<path d="M3030 470 c-8 -5 -10 -10 -5 -10 6 0 17 5 25 10 8 5 11 10 5 10 -5 0
-17 -5 -25 -10z"/>
<path d="M2950 440 c-8 -5 -10 -10 -5 -10 6 0 17 5 25 10 8 5 11 10 5 10 -5 0
-17 -5 -25 -10z"/>
<path d="M2845 390 c-62 -30 -126 -56 -170 -70 -22 -7 -96 -41 -165 -75 -69
-34 -158 -77 -197 -96 -40 -19 -73 -37 -73 -41 0 -4 35 9 78 28 42 20 93 43
112 51 19 8 85 38 145 68 61 29 144 67 185 84 82 35 151 70 135 70 -5 0 -28
-9 -50 -19z"/>
<path d="M1716 44 c-4 -20 -5 -38 -3 -40 3 -3 8 11 11 32 4 20 5 38 3 40 -3 3
-8 -11 -11 -32z"/>
<path d="M2130 50 c-19 -11 -31 -19 -27 -20 11 0 67 29 67 35 0 7 -1 7 -40
-15z"/>
<path d="M2035 10 c-3 -5 -2 -10 4 -10 5 0 13 5 16 10 3 6 2 10 -4 10 -5 0
-13 -4 -16 -10z"/>
<path d="M1418 3 c7 -3 16 -2 19 1 4 3 -2 6 -13 5 -11 0 -14 -3 -6 -6z"/>
</g>
</svg>
